<svg width="1330" height="805" viewBox="0 0 1330 805" fill="none" xmlns="http://www.w3.org/2000/svg">
<path d="M909.388 123.047V398.438H969.017V123.047H909.388Z" fill="black"/>
<path d="M964.129 60.0586C970.972 53.2227 974.393 44.9219 974.393 35.1562C974.393 25.3906 970.972 17.0898 964.129 10.2539C957.286 3.41797 948.978 0 939.202 0C929.753 0 921.607 3.41797 914.764 10.2539C907.922 17.0898 904.5 25.3906 904.5 35.1562C904.5 44.5964 907.759 52.7344 914.276 59.5703C921.118 66.4062 929.427 69.8242 939.202 69.8242C948.978 69.8242 957.286 66.569 964.129 60.0586Z" fill="black"/>
<path d="M659.142 150.879L652.788 123.047H600.002V333.574H600V693.438H824.738V649.004H659.048V398.438H659.142V150.879Z" fill="black"/>
<path d="M817.99 172.852C815.057 165.365 810.821 158.854 805.282 153.32C795.181 143.229 785.08 135.254 774.979 129.395C764.878 123.21 752.496 120.117 737.833 120.117C728.058 120.117 717.957 121.745 707.53 125C697.429 128.255 687.979 132.161 679.182 136.719V174.316C686.35 171.061 693.681 168.783 701.176 167.48C708.996 165.853 715.187 165.039 719.749 165.039C730.827 165.039 739.462 167.318 745.653 171.875C751.844 176.107 756.732 182.129 760.316 189.941C763.9 197.754 766.181 206.706 767.158 216.797C768.136 226.888 768.625 237.467 768.625 248.535V398.438H828.254V243.652C828.254 235.84 828.091 227.865 827.765 219.727C827.439 211.589 826.461 203.613 824.832 195.801C823.529 187.663 821.248 180.013 817.99 172.852Z" fill="black"/>
<path d="M1214.86 178.223C1206.39 173.014 1194.99 169.922 1180.65 168.945V122.07C1198.57 123.047 1213.89 126.953 1226.59 133.789C1239.63 140.299 1251.36 149.902 1261.78 162.598L1235.39 194.336C1230.5 188.477 1223.66 183.105 1214.86 178.223Z" fill="black"/>
<path d="M1180.65 352.051C1192.38 350.749 1202.32 347.982 1210.46 343.75C1218.94 339.193 1226.92 333.984 1234.41 328.125L1256.41 359.863C1246.31 372.559 1235.39 382.324 1223.66 389.16C1211.93 395.671 1197.59 399.414 1180.65 400.391V352.051Z" fill="black"/>
<path d="M1044.29 260.742C1044.29 242.188 1046.89 224.772 1052.11 208.496C1057.65 192.22 1065.63 177.897 1076.06 165.527C1086.48 153.158 1098.7 143.229 1112.71 135.742C1127.05 127.93 1143.02 123.372 1160.61 122.07V169.434C1144.32 173.014 1131.29 183.105 1121.51 199.707C1111.73 215.983 1106.85 235.84 1106.85 259.277C1106.85 271.322 1107.99 282.715 1110.27 293.457C1112.88 303.874 1116.46 313.151 1121.02 321.289C1125.58 329.427 1131.12 336.263 1137.64 341.797C1144.48 347.331 1152.14 350.749 1160.61 352.051V400.391C1142.69 399.414 1126.56 395.182 1112.22 387.695C1097.89 379.883 1085.67 369.792 1075.57 357.422C1065.47 344.727 1057.65 330.078 1052.11 313.477C1046.89 296.875 1044.29 279.297 1044.29 260.742Z" fill="black"/>
<path d="M997.76 427.812C983.097 420 966.805 415.605 948.884 414.629V460.527C957.356 462.155 965.013 465.736 971.855 471.27C978.698 476.803 984.563 483.802 989.451 492.266C994.339 500.729 997.923 510.332 1000.2 521.074C1002.81 531.491 1004.11 542.721 1004.11 554.766C1004.11 578.529 998.9 598.874 988.473 615.801C978.372 632.728 965.176 642.982 948.884 646.562V693.438C966.153 692.135 982.12 687.741 996.782 680.254C1011.45 672.767 1023.83 663.001 1033.93 650.957C1044.03 638.587 1051.85 624.264 1057.39 607.988C1063.25 591.387 1066.19 573.646 1066.19 554.766C1066.19 535.885 1063.42 518.145 1057.88 501.543C1052.34 484.941 1044.52 470.456 1034.42 458.086C1024.64 445.391 1012.42 435.299 997.76 427.812Z" fill="black"/>
<path d="M812.519 553.789C812.519 534.909 815.289 517.331 820.828 501.055C826.368 484.779 834.188 470.618 844.289 458.574C854.716 446.204 867.098 436.276 881.435 428.789C895.772 421.302 911.575 416.745 928.844 415.117V460.527C912.552 464.108 899.519 474.362 889.744 491.289C879.968 508.216 875.081 528.561 875.081 552.324C875.081 564.369 876.221 575.762 878.502 586.504C881.109 597.246 884.693 606.849 889.255 615.312C893.817 623.776 899.356 630.775 905.873 636.309C912.715 641.842 920.373 645.26 928.844 646.562V693.438C910.923 692.135 894.794 687.741 880.457 680.254C866.12 672.441 853.901 662.35 843.8 649.98C833.699 637.611 825.879 623.125 820.34 606.523C815.126 589.922 812.519 572.344 812.519 553.789Z" fill="black"/>
<path d="M1143.78 684.16C1157.47 691.973 1173.43 695.879 1191.68 695.879C1203.09 695.879 1213.84 694.577 1223.94 691.973C1234.04 689.043 1243 685.625 1250.82 681.719V630.938C1245.28 636.471 1239.25 641.029 1232.74 644.609C1226.22 647.865 1218.89 649.492 1210.74 649.492C1200.97 649.492 1192.01 647.051 1183.86 642.168C1176.04 636.96 1169.2 630.124 1163.33 621.66C1157.79 613.197 1153.39 603.268 1150.14 591.875C1147.2 580.156 1145.74 567.786 1145.74 554.766C1145.74 542.07 1147.2 530.026 1150.14 518.633C1153.07 507.24 1157.3 497.311 1162.84 488.848C1168.38 480.384 1175.06 473.711 1182.88 468.828C1191.03 463.62 1199.99 461.016 1209.76 461.016C1217.91 461.016 1225.41 462.806 1232.25 466.387C1239.42 469.967 1245.61 474.688 1250.82 480.547V428.789C1243.33 424.557 1235.02 421.302 1225.89 419.023C1216.77 416.745 1207.16 415.605 1197.06 415.605C1184.02 415.605 1170.66 417.884 1156.98 422.441C1143.62 426.999 1131.4 434.811 1120.32 445.879C1109.57 456.621 1100.61 470.618 1093.44 487.871C1086.6 505.124 1083.18 526.445 1083.18 551.836C1083.18 570.716 1085.29 588.783 1089.53 606.035C1093.77 623.288 1100.45 638.587 1109.57 651.934C1118.69 665.28 1130.1 676.022 1143.78 684.16Z" fill="black"/>
<path d="M1330 418.047L1329.51 693.438C1328.21 713.294 1324.13 730.221 1317.29 744.219C1310.78 758.216 1302.3 769.772 1291.88 778.887C1281.45 788.001 1269.39 794.512 1255.71 798.418C1242.02 802.324 1227.36 804.277 1211.72 804.277C1193.47 804.277 1175.39 801.022 1157.47 794.512C1139.87 788.327 1125.21 777.747 1113.48 762.773L1147.69 729.082C1150.95 734.616 1155.02 739.173 1159.91 742.754C1165.12 746.335 1170.34 749.102 1175.55 751.055C1181.09 753.008 1186.47 754.31 1191.68 754.961C1197.22 755.938 1202.11 756.426 1206.34 756.426C1226.55 756.426 1242.35 750.566 1253.75 738.848C1265.16 727.129 1270.86 707.109 1270.86 678.789V445.879L1277.21 418.047H1330Z" fill="black"/>
<path fill-rule="evenodd" clip-rule="evenodd" d="M285.059 691.438C349.948 691.438 409.773 669.761 457.685 633.255L362.657 605.196C332.194 596.201 306.114 584.966 284.417 571.491C262.721 558.015 245.427 542.863 232.535 526.035C219.885 509.649 211.587 491.759 207.641 472.363C204.037 453.068 204.634 432.781 209.431 411.502L260.26 426.51C258.293 438.207 258.734 449.313 261.582 459.828C264.671 470.786 271.075 481.234 280.791 491.172C290.508 501.11 303.932 510.468 321.062 519.247C338.433 528.469 360.467 537.021 387.165 544.905L510.221 581.24C546.183 535.003 568.211 477.396 570 414.723L437.203 375.511C410.848 367.729 387.923 362.82 368.429 360.785C349.277 358.85 332.751 359.366 318.851 362.33C305.293 365.396 294.29 370.518 285.843 377.698C277.295 385.219 270.839 394.475 266.477 405.465L215.648 390.456C223.184 369.986 233.757 352.459 247.368 337.875C261.221 323.734 277.909 313.222 297.433 306.337C317.3 299.553 340.002 296.396 365.54 296.868C391.078 297.34 419.078 302.073 449.541 311.068L563.41 344.69C535.193 216.975 421.286 121.438 285.059 121.438C127.625 121.438 0 249.036 0 406.438C0 563.839 127.625 691.438 285.059 691.438ZM112.628 418.396C140.152 418.396 162.464 396.088 162.464 368.57C162.464 341.053 140.152 318.745 112.628 318.745C85.1049 318.745 62.7927 341.053 62.7927 368.57C62.7927 396.088 85.1049 418.396 112.628 418.396Z" fill="black"/>
</svg>
