<svg width="570" height="570" viewBox="0 0 570 570" fill="none" xmlns="http://www.w3.org/2000/svg">
<path fill-rule="evenodd" clip-rule="evenodd" d="M457.685 511.818C409.773 548.323 349.948 570 285.059 570C127.625 570 0 442.401 0 285C0 127.599 127.625 0 285.059 0C421.286 0 535.193 95.5375 563.41 223.253L449.541 189.63C419.078 180.635 391.078 175.902 365.54 175.431C340.002 174.959 317.3 178.115 297.433 184.899C277.909 191.784 261.221 202.297 247.368 216.437C233.757 231.021 223.184 248.548 215.648 269.019L266.477 284.027C270.839 273.037 277.295 263.782 285.843 256.26C294.29 249.081 305.293 243.958 318.851 240.893C332.751 237.928 349.277 237.413 368.429 239.347C387.923 241.383 410.848 246.292 437.203 254.074L570 293.285C568.211 355.959 546.183 413.565 510.221 459.802L387.165 423.467C360.467 415.584 338.433 407.031 321.062 397.809C303.932 389.031 290.508 379.672 280.791 369.734C271.075 359.796 264.671 349.348 261.582 338.39C258.734 327.876 258.293 316.77 260.26 305.073L209.431 290.065C204.634 311.344 204.037 331.63 207.641 350.925C211.587 370.321 219.885 388.212 232.535 404.597C245.427 421.426 262.721 436.578 284.417 450.053C306.114 463.529 332.194 474.764 362.657 483.759L457.685 511.818ZM162.464 247.133C162.464 274.651 140.152 296.958 112.628 296.958C85.1048 296.958 62.7927 274.651 62.7927 247.133C62.7927 219.615 85.1048 197.308 112.628 197.308C140.152 197.308 162.464 219.615 162.464 247.133Z" fill="black"/>
</svg>
