<svg width="640" height="320" viewBox="0 0 640 320" fill="none" xmlns="http://www.w3.org/2000/svg">
<rect width="640" height="320" fill="white"/>
<path d="M411.875 55.2582V158.789H434.292V55.2582H411.875Z" fill="black"/>
<path d="M432.455 31.5784C435.027 29.0085 436.313 25.8879 436.313 22.2166C436.313 18.5453 435.027 15.4248 432.455 12.8549C429.882 10.285 426.758 9 423.084 9C419.531 9 416.469 10.285 413.896 12.8549C411.324 15.4248 410.038 18.5453 410.038 22.2166C410.038 25.7656 411.263 28.825 413.713 31.3949C416.285 33.9648 419.409 35.2497 423.084 35.2497C426.758 35.2497 429.882 34.026 432.455 31.5784Z" fill="black"/>
<path d="M317.798 65.7214L315.409 55.2582H295.565V134.404H295.564V269.691H380.052V252.986H317.763V158.789H317.798V65.7214Z" fill="black"/>
<path d="M377.515 73.9818C376.412 71.1671 374.82 68.7196 372.738 66.6392C368.94 62.8456 365.143 59.8473 361.345 57.6446C357.548 55.3194 352.893 54.1568 347.381 54.1568C343.706 54.1568 339.908 54.7687 335.989 55.9925C332.191 57.2162 328.639 58.6848 325.331 60.398V74.5325C328.026 73.3087 330.782 72.4521 333.6 71.9626C336.54 71.3507 338.867 71.0448 340.582 71.0448C344.747 71.0448 347.993 71.9014 350.321 73.6147C352.648 75.2055 354.486 77.4695 355.833 80.4065C357.18 83.3436 358.038 86.7089 358.405 90.5026C358.773 94.2962 358.957 98.2735 358.957 102.434V158.789H381.374V100.599C381.374 97.6616 381.312 94.6634 381.19 91.604C381.067 88.5446 380.7 85.5463 380.087 82.6093C379.597 79.5499 378.74 76.6741 377.515 73.9818Z" fill="black"/>
<path d="M526.716 76.001C523.531 74.043 519.243 72.8804 513.853 72.5133V54.8911C520.591 55.2582 526.348 56.7267 531.125 59.2966C536.025 61.7442 540.435 65.3543 544.355 70.1269L534.433 82.0586C532.595 79.8558 530.023 77.8366 526.716 76.001Z" fill="black"/>
<path d="M513.853 141.35C518.263 140.86 521.999 139.82 525.062 138.229C528.247 136.516 531.248 134.558 534.065 132.355L542.334 144.287C538.537 149.06 534.433 152.731 530.023 155.301C525.613 157.748 520.223 159.156 513.853 159.523V141.35Z" fill="black"/>
<path d="M462.589 107.023C462.589 100.048 463.569 93.5008 465.529 87.382C467.611 81.2632 470.612 75.8786 474.532 71.2283C478.452 66.578 483.046 62.8456 488.313 60.0309C493.703 57.0939 499.705 55.3806 506.32 54.8911V72.6968C500.195 74.043 495.295 77.8366 491.62 84.0778C487.945 90.1967 486.108 97.6616 486.108 106.473C486.108 111.001 486.537 115.284 487.394 119.322C488.374 123.238 489.722 126.726 491.437 129.785C493.152 132.845 495.234 135.415 497.684 137.495C500.256 139.575 503.135 140.86 506.32 141.35V159.523C499.583 159.156 493.519 157.565 488.129 154.75C482.739 151.813 478.146 148.019 474.348 143.369C470.551 138.596 467.611 133.09 465.529 126.848C463.569 120.607 462.589 113.999 462.589 107.023Z" fill="black"/>
<path d="M445.098 169.832C439.585 166.895 433.46 165.243 426.723 164.876V182.131C429.908 182.742 432.787 184.089 435.359 186.169C437.932 188.249 440.137 190.88 441.974 194.062C443.811 197.244 445.159 200.854 446.016 204.893C446.996 208.809 447.486 213.031 447.486 217.559C447.486 226.492 445.526 234.14 441.607 240.504C437.809 246.868 432.848 250.722 426.723 252.069V269.691C433.215 269.201 439.218 267.549 444.73 264.735C450.243 261.92 454.897 258.249 458.695 253.721C462.492 249.07 465.432 243.686 467.515 237.567C469.719 231.326 470.822 224.656 470.822 217.559C470.822 210.461 469.781 203.791 467.698 197.55C465.616 191.309 462.676 185.863 458.879 181.213C455.204 176.44 450.61 172.646 445.098 169.832Z" fill="black"/>
<path d="M375.458 217.191C375.458 210.094 376.5 203.485 378.582 197.366C380.664 191.248 383.604 185.924 387.402 181.396C391.322 176.746 395.977 173.014 401.366 170.199C406.756 167.384 412.697 165.671 419.19 165.059V182.131C413.065 183.477 408.165 187.332 404.49 193.695C400.815 200.059 398.978 207.707 398.978 216.641C398.978 221.169 399.406 225.452 400.264 229.49C401.244 233.529 402.591 237.139 404.306 240.32C406.021 243.502 408.104 246.133 410.554 248.214C413.126 250.294 416.005 251.579 419.19 252.069V269.691C412.452 269.201 406.389 267.549 400.999 264.735C395.609 261.798 391.015 258.004 387.218 253.354C383.421 248.703 380.481 243.258 378.398 237.016C376.438 230.775 375.458 224.167 375.458 217.191Z" fill="black"/>
<path d="M499.993 266.203C505.138 269.14 511.14 270.609 518 270.609C522.288 270.609 526.33 270.119 530.127 269.14C533.925 268.039 537.293 266.754 540.233 265.285V246.195C538.151 248.275 535.885 249.988 533.435 251.334C530.985 252.558 528.229 253.17 525.166 253.17C521.491 253.17 518.123 252.252 515.06 250.417C512.12 248.458 509.548 245.889 507.343 242.707C505.261 239.525 503.607 235.793 502.382 231.509C501.279 227.104 500.728 222.454 500.728 217.559C500.728 212.786 501.279 208.258 502.382 203.975C503.484 199.692 505.077 195.959 507.159 192.777C509.242 189.596 511.753 187.087 514.693 185.251C517.755 183.293 521.124 182.314 524.799 182.314C527.861 182.314 530.679 182.987 533.251 184.333C535.946 185.679 538.273 187.454 540.233 189.657V170.199C537.416 168.608 534.292 167.384 530.862 166.528C527.432 165.671 523.819 165.243 520.021 165.243C515.122 165.243 510.099 166.099 504.954 167.813C499.932 169.526 495.338 172.463 491.174 176.624C487.131 180.662 483.762 185.924 481.068 192.41C478.495 198.896 477.209 206.912 477.209 216.457C477.209 223.555 478.005 230.347 479.598 236.833C481.19 243.319 483.701 249.07 487.131 254.088C490.561 259.105 494.848 263.144 499.993 266.203Z" fill="black"/>
<path d="M570 166.16L569.816 269.691C569.326 277.156 567.795 283.519 565.223 288.781C562.773 294.044 559.588 298.388 555.668 301.815C551.748 305.241 547.216 307.689 542.071 309.157C536.926 310.626 531.414 311.36 525.534 311.36C518.674 311.36 511.875 310.136 505.138 307.689C498.523 305.363 493.011 301.386 488.601 295.757L501.463 283.091C502.688 285.171 504.219 286.885 506.057 288.231C508.017 289.577 509.977 290.617 511.937 291.351C514.019 292.086 516.04 292.575 518 292.82C520.083 293.187 521.92 293.371 523.513 293.371C531.107 293.371 537.048 291.168 541.336 286.762C545.623 282.357 547.767 274.831 547.767 264.184V176.624L550.156 166.16H570Z" fill="black"/>
<path fill-rule="evenodd" clip-rule="evenodd" d="M177.165 268.939C201.559 268.939 224.05 260.79 242.062 247.066L206.337 236.517C194.885 233.136 185.08 228.912 176.924 223.846C168.767 218.78 162.266 213.084 157.419 206.757C152.664 200.598 149.544 193.872 148.061 186.58C146.706 179.326 146.93 171.7 148.734 163.7L167.842 169.342C167.103 173.74 167.268 177.915 168.339 181.868C169.501 185.987 171.908 189.915 175.561 193.651C179.214 197.387 184.26 200.905 190.7 204.206C197.23 207.672 205.514 210.888 215.551 213.851L261.812 227.511C275.332 210.129 283.613 188.472 284.286 164.911L234.362 150.17C224.454 147.244 215.836 145.399 208.507 144.633C201.307 143.906 195.094 144.1 189.869 145.214C184.772 146.367 180.635 148.293 177.46 150.992C174.246 153.819 171.819 157.299 170.179 161.43L151.071 155.788C153.904 148.092 157.879 141.503 162.996 136.021C168.203 130.705 174.477 126.752 181.817 124.164C189.286 121.614 197.82 120.427 207.421 120.605C217.022 120.782 227.548 122.561 239 125.943L281.808 138.583C271.201 90.5696 228.378 54.6532 177.165 54.6532C117.979 54.6532 70 102.623 70 161.796C70 220.969 117.979 268.939 177.165 268.939ZM112.341 166.292C122.689 166.292 131.077 157.905 131.077 147.56C131.077 137.215 122.689 128.829 112.341 128.829C101.994 128.829 93.6063 137.215 93.6063 147.56C93.6063 157.905 101.994 166.292 112.341 166.292Z" fill="black"/>
</svg>
